<svg version="1.1" xmlns="http://www.w3.org/2000/svg" xmlns:xlink="http://www.w3.org/1999/xlink" width="400" height="400" viewBox="0 0 400 400"><defs/><g><rect fill="rgb(255,255,255)" stroke="none" x="0" y="0" width="400" height="400" transform="matrix(1 0 0 1 0 0)" fill-opacity="1"/><g><path fill="none" stroke="#000000" paint-order="fill stroke markers" d=" M 230 200 L 208.0901699437495 205.87785252292474 L 209.27050983124843 228.5316954888546 L 196.9098300562505 209.51056516295154 L 175.72949016875157 217.6335575687742 L 190 200 L 175.72949016875157 182.3664424312258 L 196.9098300562505 190.48943483704846 L 209.2705098312484 171.4683045111454 L 208.09016994374946 194.12214747707526 L 230 200 L 230 200 Z" stroke-linecap="round" stroke-miterlimit="10" stroke-width="5" stroke-dasharray=""/></g><g><path fill="none" stroke="rgb(255,0,0)" paint-order="fill stroke markers" d=" M 270 200 L 224.27050983124843 217.6335575687742 L 221.63118960624632 266.57395614066075 L 190.72949016875157 228.5316954888546 L 143.36881039375368 241.14496766047313 L 170 200 L 143.36881039375368 158.85503233952687 L 190.72949016875157 171.4683045111454 L 221.6311896062463 133.42604385933925 L 224.27050983124843 182.3664424312258 L 270 200 L 270 200 Z" stroke-opacity="1" stroke-linecap="round" stroke-miterlimit="10" stroke-width="5" stroke-dasharray=""/></g><g><path fill="none" stroke="rgb(255,0,0)" paint-order="fill stroke markers" d=" M 290 200 L 321.3525491562421 288.167787843871 L 227.81152949374527 285.5950864665638 L 153.6474508437579 342.65847744427305 L 127.18847050625475 252.9006727063226 L 50 200.00000000000003 L 127.18847050625473 147.09932729367742 L 153.64745084375787 57.34152255572698 L 227.81152949374524 114.40491353343617 L 321.3525491562421 111.83221215612902 L 290 200 L 290 200 Z" stroke-opacity="1" stroke-linecap="round" stroke-miterlimit="10" stroke-width="5" stroke-dasharray=""/></g><g><path fill="none" stroke="rgb(0,0,0)" paint-order="fill stroke markers" d=" M 278 152 L 272.3301270189222 154.5 L 273 160.6602540378444 L 268 157 L 263 160.6602540378444 L 263.6698729810778 154.5 L 258 152 L 263.6698729810778 149.5 L 263 143.3397459621556 L 268 147 L 273 143.3397459621556 L 272.3301270189222 149.5 L 278 152 L 272.3301270189222 154.5 L 278 152 L 278 152 Z" stroke-opacity="1" stroke-linecap="round" stroke-miterlimit="10" stroke-width="3" stroke-dasharray=""/></g><g><path fill="none" stroke="rgb(0,0,0)" paint-order="fill stroke markers" d=" M 183 118 L 177.33012701892218 120.5 L 178 126.66025403784438 L 173 123 L 168 126.6602540378444 L 168.66987298107782 120.5 L 163 118 L 168.66987298107782 115.5 L 168 109.33974596215562 L 173 113 L 178 109.3397459621556 L 177.33012701892218 115.5 L 183 117.99999999999999 L 177.33012701892218 120.5 L 183 118 L 183 118 Z" stroke-opacity="1" stroke-linecap="round" stroke-miterlimit="10" stroke-width="3" stroke-dasharray=""/></g><g><path fill="none" stroke="rgb(0,0,0)" paint-order="fill stroke markers" d=" M 278 248 L 272.3301270189222 250.5 L 273 256.66025403784437 L 268 253 L 263 256.66025403784437 L 263.6698729810778 250.5 L 258 248 L 263.6698729810778 245.5 L 263 239.3397459621556 L 268 243 L 273 239.3397459621556 L 272.3301270189222 245.5 L 278 248 L 272.3301270189222 250.5 L 278 248 L 278 248 Z" stroke-opacity="1" stroke-linecap="round" stroke-miterlimit="10" stroke-width="3" stroke-dasharray=""/></g><g><path fill="none" stroke="rgb(0,0,0)" paint-order="fill stroke markers" d=" M 185 280 L 179.33012701892218 282.5 L 180 288.66025403784437 L 175 285 L 170 288.66025403784437 L 170.66987298107782 282.5 L 165 280 L 170.66987298107782 277.5 L 170 271.33974596215563 L 175 275 L 180 271.33974596215563 L 179.33012701892218 277.5 L 185 280 L 179.33012701892218 282.5 L 185 280 L 185 280 Z" stroke-opacity="1" stroke-linecap="round" stroke-miterlimit="10" stroke-width="3" stroke-dasharray=""/></g><g><path fill="none" stroke="rgb(0,0,0)" paint-order="fill stroke markers" d=" M 125 200 L 119.3301270189222 202.5 L 120 208.6602540378444 L 115 205 L 110 208.6602540378444 L 110.6698729810778 202.5 L 105 200 L 110.6698729810778 197.5 L 110 191.3397459621556 L 115 195 L 120 191.3397459621556 L 119.3301270189222 197.5 L 125 200 L 119.3301270189222 202.5 L 125 200 L 125 200 Z" stroke-opacity="1" stroke-linecap="round" stroke-miterlimit="10" stroke-width="3" stroke-dasharray=""/></g><g><path fill="none" stroke="rgb(0,0,0)" paint-order="fill stroke markers" d=" M 110 115 L 93.53553390593274 118.53553390593274 L 90 135 L 86.46446609406726 118.53553390593274 L 70 115 L 86.46446609406726 111.46446609406726 L 90 95 L 93.53553390593274 111.46446609406726 L 110 115 L 110 115 Z" stroke-opacity="1" stroke-linecap="round" stroke-miterlimit="10" stroke-width="3" stroke-dasharray=""/></g><g><path fill="none" stroke="rgb(0,0,0)" paint-order="fill stroke markers" d=" M 260 65 L 243.53553390593274 68.53553390593274 L 240 85 L 236.46446609406726 68.53553390593274 L 220 65 L 236.46446609406726 61.46446609406726 L 240 45 L 243.53553390593274 61.46446609406726 L 260 65 L 260 65 Z" stroke-opacity="1" stroke-linecap="round" stroke-miterlimit="10" stroke-width="3" stroke-dasharray=""/></g><g><path fill="none" stroke="rgb(0,0,0)" paint-order="fill stroke markers" d=" M 360 200 L 343.53553390593277 203.53553390593274 L 340 220 L 336.4644660940673 203.53553390593274 L 320 200 L 336.46446609406723 196.46446609406726 L 340 180 L 343.5355339059327 196.46446609406726 L 360 200 L 360 200 Z" stroke-opacity="1" stroke-linecap="round" stroke-miterlimit="10" stroke-width="3" stroke-dasharray=""/></g><g><path fill="none" stroke="rgb(0,0,0)" paint-order="fill stroke markers" d=" M 262 333 L 245.53553390593274 336.5355339059327 L 242 353 L 238.46446609406726 336.53553390593277 L 222 333 L 238.46446609406726 329.4644660940673 L 242 313 L 245.53553390593274 329.46446609406723 L 262 333 L 262 333 Z" stroke-opacity="1" stroke-linecap="round" stroke-miterlimit="10" stroke-width="3" stroke-dasharray=""/></g><g><path fill="none" stroke="rgb(0,0,0)" paint-order="fill stroke markers" d=" M 110 288 L 93.53553390593274 291.5355339059327 L 90 308 L 86.46446609406726 291.53553390593277 L 70 288 L 86.46446609406726 284.4644660940673 L 90 268 L 93.53553390593274 284.46446609406723 L 110 288 L 110 288 Z" stroke-opacity="1" stroke-linecap="round" stroke-miterlimit="10" stroke-width="3" stroke-dasharray=""/></g><g><path fill="none" stroke="rgb(255,0,0)" paint-order="fill stroke markers" d=" M 390 200 L 364.5448267190434 295 L 295 364.54482671904333 L 200 390 L 105.00000000000004 364.5448267190434 L 35.4551732809567 295.00000000000006 L 10 200.00000000000003 L 35.455173280956615 105.00000000000004 L 104.99999999999991 35.4551732809567 L 199.99999999999997 10 L 294.9999999999999 35.455173280956586 L 364.5448267190433 104.99999999999991 L 390 199.99999999999977 L 364.5448267190434 294.9999999999999 L 390 200 L 390 200 Z" stroke-opacity="1" stroke-linecap="round" stroke-miterlimit="10" stroke-width="3" stroke-dasharray=""/></g></g></svg>